HIERARCHY
ROOT pelvis
{
  OFFSET 0 100 0
  CHANNELS 6 Xposition Yposition Zposition Zrotation Xrotation Yrotation
  JOINT pelvis_right_femur
  {
    OFFSET -10.78128 -3.44521 -0.5502486
    CHANNELS 3 Zrotation Xrotation Yrotation
    JOINT right_femur_tibia
    {
      OFFSET -0.8047443 -44.0398 -0.1307829
      CHANNELS 3 Zrotation Xrotation Yrotation
      JOINT right_tibia_foot
      {
        OFFSET 3.006224 -47.83518 -5
        CHANNELS 3 Zrotation Xrotation Yrotation
        End Site
        {
          OFFSET 0 -5 15
        }
      }
    }
  }
  JOINT pelvis_left_femur
  {
    OFFSET 10.78128 -3.44521 -0.5502486
    CHANNELS 3 Zrotation Xrotation Yrotation
    JOINT left_femur_tibia
    {
      OFFSET 0.8047443 -44.0398 -0.1307829
      CHANNELS 3 Zrotation Xrotation Yrotation
      JOINT left_tibia_foot
      {
        OFFSET -4.370144 -48.10324 -4.275266
        CHANNELS 3 Zrotation Xrotation Yrotation
        End Site
        {
          OFFSET 0 -5 15
        }
      }
    }
  }
  JOINT pelvis_spine1
  {
    OFFSET 0 6.468898 -3.129235
    CHANNELS 3 Zrotation Xrotation Yrotation
    JOINT spine1
    {
      OFFSET 0 23.15396 4.99043
      CHANNELS 3 Zrotation Xrotation Yrotation
      JOINT spine2
      {
        OFFSET 0 20.79997 -5.064912
        CHANNELS 3 Zrotation Xrotation Yrotation
        JOINT neck
        {
          OFFSET 0 14.38658 9.616178
          CHANNELS 3 Zrotation Xrotation Yrotation
          End Site
          {
            OFFSET 0 20 0
          }
        }
      }
      JOINT right_manubrium
      {
        OFFSET -5.722621 16.35077 3.967754
        CHANNELS 3 Zrotation Xrotation Yrotation
        JOINT right_clavicle
        {
          OFFSET -13.16364 1.694482 -4.693211
          CHANNELS 3 Zrotation Xrotation Yrotation
          JOINT right_humerus
          {
            OFFSET -28.5034 -0.3100689 -2.792744
            CHANNELS 3 Zrotation Xrotation Yrotation
            JOINT right_radius
            {
              OFFSET -25.15693 0.02248979 -1.271978
              CHANNELS 3 Zrotation Xrotation Yrotation
              End Site
              {
                OFFSET -15 0 0
              }
            }
          }
        }
      }
      JOINT left_manubrium
      {
        OFFSET 5.722621 16.35077 3.967754
        CHANNELS 3 Zrotation Xrotation Yrotation
        JOINT left_clavicle
        {
          OFFSET 13.16364 1.694482 -4.693211
          CHANNELS 3 Zrotation Xrotation Yrotation
          JOINT left_humerus
          {
            OFFSET 29.39168 -1.063119 -2.237045
            CHANNELS 3 Zrotation Xrotation Yrotation
            JOINT left_radius
            {
              OFFSET 24.59957 -0.9528479 0.9047498
              CHANNELS 3 Zrotation Xrotation Yrotation
              End Site
              {
                OFFSET 15 -0 -0
              }
            }
          }
        }
      }
    }
  }
}
MOTION
Frames: 23
Frame Time: 0.0416666666667
-1083.422 102.1014 2336.829 -5.125598 -2.512417 -73.05347 2.203497 -24.15809 -8.668073 -0 6.006116 -0 -13.13857 4.257646 1.725849 -6.277875 16.40649 -9.523912 -0 19.88158 -0 5.69531 -18.15435 16.50868 -2.679872 -3.00869 5.38171 -2.117717 14.1 -5.584581 -0.4228357 19.94376 7.233442 9.592227 -11.9526 0.5941987 6.864414 -18.97707 11.09974 84.23404 32.69968 -16.71053 -0 0 19.68966 -23.22238 12.32169 8.286313 10.70678 -29.22892 -10.13827 -86.60609 3.771459 13.59079 0 0 -25.25112 16.60285 10.35985 -7.672802
-1089.457 101.6011 2338.466 -5.394729 -2.220984 -73.08093 3.450547 -24.17994 -7.77588 -0 6.241628 -0 -13.37202 5.277968 1.389286 -6.015038 16.21716 -8.330413 -0 25.98724 -0 6.534084 -16.10955 16.17918 -2.697995 -2.800756 5.116272 -2.254538 13.91882 -5.324943 -0.2140425 20.26232 7.339929 9.529955 -12.1055 1.035757 6.899776 -18.72243 11.08117 84.08275 32.91091 -16.12248 -0 0 19.23451 -23.44114 12.32409 8.637647 10.58438 -28.59161 -9.929458 -86.63208 4.233858 13.18693 0 0 -24.05102 16.89633 10.99862 -8.146156
-1095.757 101.6154 2340.1 -6.054301 -1.924501 -73.29945 4.906803 -22.92997 -6.359889 -0 7.622427 -0 -13.57397 5.925487 0.6910532 -5.478931 15.22355 -7.183784 -0 33.33365 -0 6.675205 -13.54758 15.69845 -2.689361 -2.61347 4.919266 -2.383844 13.76 -5.045234 -0.03133579 20.57297 7.438363 9.472195 -12.19975 1.434108 6.944285 -18.56255 11.08511 83.87261 33.00722 -15.44028 -0 0 18.91281 -23.65947 12.30581 9.019504 10.38347 -27.9573 -9.733384 -86.83531 4.701331 13.18402 0 0 -22.40054 17.03767 11.65612 -8.369865
-1102.177 102.1854 2341.692 -6.967566 -1.664748 -73.77911 6.330223 -20.25563 -4.578534 -0 9.624997 -0 -13.68075 5.867078 -0.3427794 -4.692859 13.08187 -6.205887 -0 41.38193 -0 6.206049 -10.6964 15.22944 -2.65432 -2.454891 4.803935 -2.507222 13.63152 -4.74765 0.1181936 20.86529 7.523213 9.418704 -12.23131 1.773585 6.988992 -18.52111 11.11376 83.60365 32.97107 -14.66202 -0 0 18.76851 -23.88813 12.25956 9.435803 10.109 -27.33935 -9.55631 -87.2285 5.155292 13.62228 0 0 -20.31193 17.00816 12.31339 -8.324568
-1108.524 103.2337 2343.197 -7.940754 -1.518668 -74.5464 7.373939 -16.20331 -2.761889 -0 11.49569 -0 -13.72891 4.917037 -1.516016 -3.748185 9.528616 -5.507981 -0 49.09406 -0 5.35819 -7.943651 14.94407 -2.595493 -2.331728 4.781668 -2.627261 13.53715 -4.432167 0.2296341 21.12915 7.591133 9.36849 -12.19989 2.04435 7.024208 -18.62092 11.16848 83.27395 32.7973 -13.78 -0 0 18.84282 -24.13564 12.17753 9.894478 9.765712 -26.7461 -9.403198 -87.81733 5.576576 14.52924 0 0 -17.81819 16.79774 12.94603 -7.998169
-1114.61 104.5457 2344.584 -8.785853 -1.574585 -75.54699 7.76333 -11.09791 -1.280755 -0 12.48489 -0 -13.81302 3.146295 -2.508292 -2.773722 4.591827 -5.12929 -0 54.98103 -0 4.431412 -5.747823 14.93085 -2.517763 -2.24854 4.859627 -2.745425 13.47552 -4.099326 0.3005182 21.35452 7.640977 9.319571 -12.11029 2.243102 7.040556 -18.87826 11.24874 82.88287 32.49693 -12.78874 -0 0 19.16417 -24.40285 12.05402 10.40196 9.35979 -26.18304 -9.276926 -88.594 5.945572 15.90527 0 0 -14.98984 16.40924 13.52284 -7.39168
-1120.321 105.8136 2345.852 -9.40246 -1.848867 -76.64818 7.514179 -5.506369 -0.3355303 -0 12.27839 -0 -13.96737 0.8595182 -3.065206 -1.831063 -1.249947 -4.969269 -0 57.46009 -0 3.697236 -4.40591 15.17017 -2.42777 -2.207045 5.037592 -2.860477 13.44071 -3.753324 0.3310715 21.53213 7.673614 9.269665 -11.97206 2.372573 7.031538 -19.29528 11.35114 82.4352 32.09792 -11.69584 -0 0 19.73656 -24.67949 11.88905 10.9566 8.901109 -25.65625 -9.178165 -89.53154 6.243055 17.70807 0 0 -11.94465 15.86206 14.00874 -6.52591
-1125.651 106.7357 2347.034 -9.803539 -2.198108 -77.69804 6.981674 -0.09135523 0.1489074 -0 11.26646 -0 -14.09888 -1.61267 -3.188937 -0.8166163 -7.138771 -4.773293 -0 55.45564 -0 3.32972 -3.838835 15.58634 -2.332844 -2.206071 5.305667 -2.968177 13.42469 -3.404164 0.324079 21.65468 7.691505 9.217852 -11.79701 2.439285 6.996803 -19.854 11.4694 81.94418 31.64116 -10.53149 -0 0 20.53152 -24.94511 11.6911 11.54356 8.405281 -25.17625 -9.106339 -90.5823 6.452055 19.84496 0 0 -8.8424 15.19267 14.37177 -5.444907
-1130.69 107.1168 2348.196 -10.0459 -2.355209 -78.60208 6.632357 4.567322 0.4122082 -0 10.28988 -0 -14.05205 -4.128216 -3.115057 0.4655166 -12.15117 -4.255386 -0 48.9544 -0 3.376752 -3.62284 16.07747 -2.239738 -2.24247 5.644474 -3.062208 13.42095 -3.068145 0.2840205 21.71785 7.698086 9.166546 -11.5955 2.449895 6.944195 -20.51537 11.59532 81.43225 31.17231 -9.352857 -0 0 21.4886 -25.1739 11.47705 12.13304 7.894438 -24.76126 -9.061706 -91.68148 6.560088 22.17861 0 0 -5.866556 14.45066 14.59058 -4.213504
-1135.588 106.9215 2349.422 -10.13999 -2.112038 -79.35496 6.702605 8.138835 0.6526354 -0 10.04788 -0 -13.71675 -6.720546 -3.079946 2.041903 -15.64399 -3.346255 -0 39.20589 -0 3.731977 -3.279594 16.49423 -2.153661 -2.312641 6.027848 -3.135375 13.42787 -2.767156 0.2155886 21.72019 7.697096 9.122766 -11.37401 2.407464 6.889175 -21.22415 11.7207 80.93023 30.733 -8.243047 -0 0 22.52362 -25.34043 11.26912 12.68163 7.396523 -24.43945 -9.047959 -92.75371 6.56061 24.54331 0 0 -3.203911 13.69222 14.65792 -2.910543
-1140.515 106.2681 2350.787 -10.04415 -1.485957 -80.01356 7.033123 10.66868 0.9097369 -0 10.72146 -0 -13.08876 -9.392132 -3.122502 3.583571 -17.45755 -2.359002 -0 28.40673 -0 4.102749 -2.596909 16.69318 -2.077817 -2.413814 6.426932 -3.180285 13.45038 -2.527146 0.1222348 21.66206 7.691856 9.09779 -11.13526 2.309341 6.851596 -21.91783 11.83917 80.47553 30.35391 -7.304755 -0 0 23.54167 -25.42356 11.08998 13.13612 6.942907 -24.24831 -9.073925 -93.72099 6.453323 26.76651 0 0 -1.028175 12.97321 14.57905 -1.620151
-1145.621 105.3681 2352.341 -9.744932 -0.7220666 -80.64917 7.193651 12.59331 1.061919 -0 12.05152 -0 -12.2998 -11.94998 -3.08811 4.545922 -17.93771 -1.868759 -0 18.92149 -0 4.050806 -1.759732 16.69696 -2.013394 -2.544503 6.815046 -3.189826 13.49885 -2.374801 0.005436165 21.54455 7.684485 9.104726 -10.88018 2.147765 6.85073 -22.53808 11.94722 80.1078 30.05129 -6.645261 -0 0 24.45335 -25.40841 10.9579 13.44129 6.563968 -24.22906 -9.152428 -94.5131 6.243414 28.69436 -0 0 0.5171149 12.34145 14.36693 -0.4203787
-1151.015 104.4411 2354.095 -9.327833 -0.1512933 -81.30918 6.767598 14.55613 0.9111598 -0 13.69204 -0 -11.60774 -13.98149 -2.773844 4.508023 -17.73289 -2.38866 -0 12.39835 -0 3.17217 -1.225663 16.76446 -1.96002 -2.704122 7.172633 -3.158012 13.58505 -2.332113 -0.1350621 21.36885 7.675187 9.15448 -10.61019 1.913087 6.89975 -23.04205 12.0437 79.86106 29.82721 -6.352837 -0 0 25.19231 -25.28742 10.88326 13.55163 6.283661 -24.4161 -9.295663 -95.07982 5.939788 30.21772 -0 0 1.336712 11.82864 14.03591 0.6304889
-1156.741 103.6554 2356.014 -8.963401 -0.02189499 -81.9945 5.590707 17.04488 0.3498143 -0 15.56524 -0 -11.29193 -14.90242 -2.069857 3.382617 -17.40472 -4.099339 -0 9.29915 -0 1.374993 -1.436401 17.21673 -1.916575 -2.891977 7.490134 -3.080983 13.7166 -2.411201 -0.3002038 21.13636 7.661928 9.251748 -10.32906 1.598224 7.001327 -23.40902 12.12794 79.75592 29.67334 -6.474647 -0 0 25.72673 -25.06063 10.86752 13.44237 6.115892 -24.82642 -9.509167 -95.39867 5.553268 31.28654 -0 0 1.392643 11.44552 13.59612 1.503333
-1162.791 103.1233 2358.037 -8.822996 -0.4018414 -82.6537 3.81261 20.03761 -0.5052307 -0 18.0087 -0 -11.50199 -14.0643 -1.006947 1.402984 -17.09716 -6.757072 -0 9.064506 -0 -0.939595 -2.545002 18.16666 -1.882095 -3.105722 7.766567 -2.957693 13.89317 -2.612146 -0.4900048 20.84985 7.640733 9.392793 -10.04489 1.202894 7.146016 -23.63878 12.1977 79.79682 29.57645 -7.007988 -0 0 26.05809 -24.73564 10.90472 13.11412 6.064774 -25.45381 -9.787628 -95.47325 5.096755 31.90315 -0 0 0.6983219 11.18432 13.0522 2.195423
-1169.11 102.9295 2360.09 -8.993049 -1.176135 -83.19547 1.787958 22.8963 -1.365796 -0 21.61665 -0 -12.1988 -10.99586 0.2842794 -0.9789115 -16.50933 -9.766643 -0 10.63591 -0 -3.015769 -4.31384 19.43406 -1.856484 -3.33943 8.004076 -2.790562 14.10555 -2.923916 -0.701551 20.51571 7.606569 9.56553 -9.771878 0.7369709 7.313878 -23.74354 12.24823 79.97474 29.5234 -7.905897 -0 0 26.20871 -24.32819 10.98453 12.59076 6.128025 -26.26788 -10.11397 -95.32395 4.587813 32.09897 0 0 -0.69433 11.02804 12.40878 2.715058
-1175.595 103.1471 2362.108 -9.442905 -2.107626 -83.51658 -0.07494416 24.61266 -1.983677 -0 26.83221 -0 -13.23142 -5.762208 1.634574 -3.220043 -15.16408 -12.40514 -0 12.91672 -0 -4.167738 -6.25333 20.68934 -1.840924 -3.581964 8.201488 -2.586485 14.3374 -3.3263 -0.9271001 20.1468 7.554665 9.751357 -9.530906 0.2226337 7.478494 -23.7387 12.27299 80.27208 29.5047 -9.088897 -0 0 26.20713 -23.86364 11.09523 11.91451 6.300679 -27.21575 -10.46113 -94.97764 4.051546 31.90944 0 0 -2.702814 10.96158 11.68031 3.062226
-1182.087 103.8134 2364.037 -10.05652 -2.926593 -83.53908 -1.42045 24.28691 -2.324206 -0 33.48198 -0 -14.43831 0.7769768 2.869636 -4.872627 -12.74574 -14.14516 -0 15.00914 -0 -4.181831 -7.929597 21.62803 -1.837855 -3.816812 8.350627 -2.357862 14.56824 -3.791561 -1.15326 19.76393 7.482115 9.9282 -9.347434 -0.3057824 7.612337 -23.63732 12.26552 80.66598 29.5164 -10.45639 -0 0 26.07866 -23.37764 11.22586 11.14074 6.576478 -28.22583 -10.79596 -94.46197 3.52067 31.36059 0 0 -5.213723 10.97907 10.89945 3.217067
-1188.391 104.8775 2365.837 -10.69868 -3.429114 -83.24578 -2.050716 21.56992 -2.544695 -0 40.5278 -0 -15.65888 7.108886 3.815705 -5.757673 -9.29314 -14.89212 -0 16.30325 -0 -3.405767 -9.220887 22.05583 -1.850348 -4.024269 8.437474 -2.122349 14.77721 -4.286412 -1.362228 19.39433 7.389442 10.07466 -9.246058 -0.805686 7.692734 -23.44944 12.22203 81.12994 29.56016 -11.89797 -0 0 25.84288 -22.91296 11.36715 10.33209 6.946275 -29.21593 -11.08506 -93.80506 3.031267 30.4714 0 0 -8.08151 11.08427 10.11782 3.143651
-1194.33 106.1657 2367.488 -11.26322 -3.554395 -82.69544 -2.018358 16.81224 -2.830124 -0 46.28972 -0 -16.68595 11.68362 4.306723 -5.979217 -5.180828 -14.94002 -0 16.51429 -0 -2.479418 -10.32801 21.91261 -1.880961 -4.185611 8.447426 -1.90042 14.94668 -4.775432 -1.535175 19.067 7.281555 10.17462 -9.243607 -1.233864 7.707042 -23.18433 12.14335 81.63507 29.64173 -13.30686 -0 0 25.51513 -22.51173 11.51153 9.550498 7.394992 -30.10632 -11.30167 -93.03792 2.615725 29.26615 0 0 -11.13604 11.28524 9.396868 2.807405
-1199.808 107.4129 2368.993 -11.66594 -3.394203 -82.00343 -1.582271 10.84839 -3.284757 -0 49.1355 -0 -17.29069 13.64035 4.248858 -5.789354 -0.9353649 -14.6976 -0 15.68253 -0 -1.926738 -11.55962 21.25964 -1.930579 -4.287465 8.371479 -1.711339 15.06494 -5.225655 -1.656466 18.80661 7.167507 10.22083 -9.344041 -1.555158 7.655256 -22.85291 12.03534 82.15211 29.76805 -14.59374 -0 0 25.10858 -22.20632 11.65259 8.848735 7.899784 -30.83373 -11.43131 -92.19609 2.296525 27.78646 0 0 -14.20089 11.58697 8.793028 2.195709
-1204.847 108.3499 2370.371 -11.80985 -3.118423 -81.29567 -1.041348 4.591699 -3.939295 -0 48.23374 -0 -17.34561 13.10451 3.720944 -5.450563 2.990277 -14.43997 -0 14.11031 -0 -1.902989 -13.09575 20.24196 -1.997919 -4.324227 8.209735 -1.569569 15.12697 -5.610579 -1.716641 18.62921 7.058972 10.21569 -9.537654 -1.748225 7.549063 -22.46838 11.90751 82.65373 29.94457 -15.69567 -0 0 24.63533 -22.01352 11.78476 8.264625 8.431265 -31.36015 -11.47324 -91.31843 2.084078 26.09487 0 0 -17.11457 11.98676 8.345708 1.32907
-1209.563 108.7939 2371.643 -11.59074 -2.871501 -80.66469 -0.5972343 -1.29097 -4.778527 -0 43.86531 -0 -16.8947 10.91103 2.967777 -5.166474 6.343972 -14.2429 -0 12.2406 -0 -2.204142 -14.89591 19.05859 -2.079892 -4.297676 7.970817 -1.483207 15.13345 -5.912066 -1.71298 18.5413 6.96802 10.16929 -9.804447 -1.806287 7.408119 -22.04515 11.77066 83.1161 30.17378 -16.57687 -0 0 24.10674 -21.93456 11.90361 7.819936 8.957441 -31.67291 -11.43768 -90.4437 1.978918 24.26871 0 0 -19.74498 12.47375 8.073627 0.2577914
